# xmcd
#
# Track frame offsets:
#	150
#	12432
#	27040
#	39685
#	50872
#	62887
#	75070
#	87347
#	99887
#	111157
#	123087
#	135370
#	146892
#	159012
#
# Disc length: 2228 seconds
#
# Revision: 0
# Processed by: cddbd v1.5.2PL0 Copyright (c) Steve Scherf et al.
# Submitted via: dBpowerAMP V4.0
#
DISCID=a808b20e
DTITLE=Praiao and Prainha - Bis Sertanejo
DYEAR=1994
DGENRE=Sertanejo
TTITLE0=O TERCEIRO GOLPE
TTITLE1=BEBENDO NOS BARES
TTITLE2=BEBO E NAO CHORO
TTITLE3=ASSIM QUE SE FAZ
TTITLE4=DE SAO PAULO A BRASILIA
TTITLE5=MAL AGRADECIDA
TTITLE6=WHISKY E CERVEJA
TTITLE7=INGRATIDAO
TTITLE8=QUERO BEBER
TTITLE9=VOU SOFRER MAS, PODE PARTIR
TTITLE10=NEBULOSO CAMINHO
TTITLE11=VOLTEI PRA TE VER
TTITLE12=BELEZAS DO ARAGUAIA
TTITLE13=FALSA MULHER
EXTD=
EXTT0=
EXTT1=
EXTT2=
EXTT3=
EXTT4=
EXTT5=
EXTT6=
EXTT7=
EXTT8=
EXTT9=
EXTT10=
EXTT11=
EXTT12=
EXTT13=
PLAYORDER=
